PathFileType	4	(X/Y/Z)	Patient4_TMGait_0pt6_02_right_30.trc.trc
DataRate	CameraRate	NumFrames	NumMarkers	Units	OrigDataRate	OrigDataStartFrame	OrigNumFrames
83.832335329341	83.832335329341	4	33	mm	83.832335329341	1	       141
Frame#	Time	Sacral			L.Shoulder			Chest			R.Shoulder			Neck			R.ASIS			L.ASIS			R.Thigh.Superior			R.Thigh.Lateral			R.Thigh.Inferior			R.Patella			L.Thigh.Superior			L.Thigh.Lateral			L.Thigh.Inferior			L.Patella			L.Shank.Superior			L.Shank.Lateral			L.Shank.Inferior			R.Shank.Superior			R.Shank.Lateral			R.Shank.Inferior			R.Heel			R.Midfoot.Superior			R.Midfoot.Lateral			R.Toe			L.Heel			L.Midfoot.Lateral			L.Midfoot.Superior			L.Toe			L.Elbow			L.Wrist			R.Elbow			R.Wrist			
		X1	Y1	Z1	X2	Y2	Z2	X3	Y3	Z3	X4	Y4	Z4	X5	Y5	Z5	X6	Y6	Z6	X7	Y7	Z7	X8	Y8	Z8	X9	Y9	Z9	X10	Y10	Z10	X11	Y11	Z11	X12	Y12	Z12	X13	Y13	Z13	X14	Y14	Z14	X15	Y15	Z15	X16	Y16	Z16	X17	Y17	Z17	X18	Y18	Z18	X19	Y19	Z19	X20	Y20	Z20	X21	Y21	Z21	X22	Y22	Z22	X23	Y23	Z23	X24	Y24	Z24	X25	Y25	Z25	X26	Y26	Z26	X27	Y27	Z27	X28	Y28	Z28	X29	Y29	Z29	X30	Y30	Z30	X31	Y31	Z31	X32	Y32	Z32	X33	Y33	Z33	

1	36.110000000000	880.507321679859	1021.173641701214	418.872476104691	1100.935521920402	1427.356717450814	222.661014965285	1188.216638284816	1357.109656170961	391.484065808531	1102.338509679679	1448.000943228206	554.676834896441	1099.984862367932	1496.412300797952	370.370582976857	1099.702833525529	956.226069180881	545.964156124007	1098.167615535937	957.696086170406	272.220570834212	1191.235306746404	798.509183005810	526.443686389940	1159.649943441348	679.913728233307	607.985522635766	1252.810995375970	643.934489981974	530.937227470254	1283.760480295613	537.472092304700	558.800826496926	1135.696386385240	749.311524835163	306.581007289914	1044.578193700553	637.467401394387	248.438709500363	1125.853155345069	557.528477534870	314.257214790226	1122.700552292549	488.807882648157	324.901603830036	1095.010381134016	418.440258757375	318.710097443473	1003.046897292931	304.254856546070	270.962518901609	1053.233338453494	194.708835328077	345.899226482343	1222.226742734937	453.740189020833	569.770981020890	1112.177659966580	391.774110629699	632.223302811259	1121.696882319736	280.345059716309	588.666238515217	940.240353436383	167.037135250445	563.299777656578	1117.189386846312	164.721895546251	613.696300087340	1010.748918959285	137.417650270018	645.251243968512	1208.649616739538	78.493740444371	655.362450134227	923.280812905612	39.388835648472	391.928864049054	998.530926874069	35.896999535528	312.176764293651	1081.194245486387	96.573035059389	339.311830383184	1210.169228022274	44.640888075678	313.947615784377	1093.554823826139	1074.815256780828	102.744022622253	1218.441450017302	844.235647384998	107.926293240492	1009.583959536903	1119.000159801349	692.186597570353	1076.662153836167	864.527769082213	700.244581483631	
2	36.121928571429	878.350028930118	1020.919039027711	417.899938582639	1101.061078832303	1426.705233184153	222.615066325389	1187.317927533189	1356.107867347864	391.795261523372	1100.966532243795	1447.134695084846	554.627314306801	1099.595453831700	1495.722087721134	370.342978768821	1097.106851440145	955.924928029682	546.156158163580	1097.191986784118	957.373888641993	272.101318945662	1189.386041142361	799.773088962896	526.211540058408	1159.182972147390	681.404034650154	608.303821883424	1252.057138065664	646.001200847433	530.733585827782	1285.174389166520	541.427457368031	558.954675177512	1133.383808761596	748.493151896987	307.386780253944	1041.962658738979	636.939547800628	248.609390757777	1122.122888145630	556.712396846462	315.135264129806	1118.309753375080	487.796388468726	325.862662021835	1090.353532302707	417.614289925845	319.400250744264	998.064248387893	304.016981903536	271.011563289737	1046.683389355687	194.148633652112	346.314647813393	1227.269946519229	456.384496431393	570.540633410460	1121.240636831909	389.656460804074	633.965510895740	1136.002638111064	278.933918492314	590.549911501925	960.801562670201	157.545930495370	566.441259603522	1137.477634287076	163.093076685277	615.849271655366	1032.822302859298	131.147632447870	648.009553677038	1232.617908615572	81.310364443386	656.939672376279	915.769645586228	39.442740436166	391.886820603685	990.978652654047	35.896435532551	312.192295738087	1073.725200862110	96.425943455029	339.494223691939	1202.697723381821	44.269800745366	314.007038284855	1097.737694192465	1075.342492234379	100.431921470062	1232.606031849248	851.232993035603	106.859514023353	1003.699266172154	1119.361232127590	691.276683316721	1055.650997535772	863.484364478683	705.676509749737	
3	36.133857142857	876.226774093827	1020.687511526946	416.947149156784	1101.195386147081	1426.046990352128	222.589787044260	1186.451067120279	1355.115997013299	392.122788541283	1099.645698732386	1446.296252320453	554.596527698862	1099.232390803651	1495.036223804093	370.329918986691	1094.523176993671	955.605250471812	546.370867639135	1096.182073228779	957.019991181840	272.024824105752	1187.472099362049	800.964481538113	526.039642755556	1158.560906854244	682.802728982007	608.650501312121	1251.210853758287	647.984936838815	530.632784252901	1286.428300425370	545.289142936707	559.173237795797	1131.082346865134	747.671634801771	308.140870612344	1039.331855248297	636.421034161959	248.782381830424	1118.409127355984	555.890226422274	315.976354690337	1113.949277375247	486.802355429070	326.796942583625	1085.722476596304	416.799035728722	320.075432189789	993.107433796669	303.783662954795	271.062196964913	1040.191024499363	193.599242899385	346.721169597795	1232.152725761931	458.986133356161	571.308770246404	1130.165261860380	387.551598339298	635.674488405277	1150.143331542768	277.602967493206	592.367590047640	981.252940018851	148.278834363459	569.460682110534	1157.597243573915	161.569937012903	617.883563712456	1054.756694486449	125.033040219459	650.625792284864	1256.345106761896	84.188287038024	658.337210723367	908.335829167387	39.491197958282	391.845369052967	983.506993489946	35.894510139896	312.205109774669	1066.329917390353	96.283242288094	339.671337879676	1195.302556006982	43.912945020429	314.064336964125	1101.805488700465	1075.855402544695	98.179048947261	1246.525915338445	858.256951488222	105.864917541030	997.877582579649	1119.793278901926	690.445996159384	1035.183286245542	862.675450836823	710.890865590403	
4	36.145785714286	874.173235600656	1020.494845246874	416.046558100014	1101.345459019522	1425.374827879660	222.611152723825	1185.640979617796	1354.143389940647	392.489598151906	1098.417466603659	1445.514085329976	554.607441816745	1098.915681255072	1494.358846474961	370.350184991264	1091.970410048328	955.250543795969	546.642214452604	1095.118739429375	956.618656958754	272.037676751604	1185.429093894807	801.999629514733	525.998708507992	1157.632598892047	684.001802357050	609.058162365323	1250.169248143432	649.778265513592	530.726030812642	1287.349539874858	548.947821324037	559.502080955385	1128.779804612747	746.840300335945	308.819101623384	1036.642143650491	635.924265210154	248.964938001087	1114.677523784620	555.054867137455	316.755393653290	1109.590455585761	485.840485997595	327.682776739889	1081.087616064475	416.006423618015	320.722112197039	988.144338251135	303.562205559631	271.116618609658	1033.753942013600	193.072598347532	347.109387063940	1236.707664167083	461.487233621939	572.073062154238	1138.816299663567	385.452457206227	637.315068486478	1163.962435509892	276.417729664532	594.055761092153	1001.509680463834	139.428123325417	572.243289715901	1177.400372412131	160.251378723314	619.688418497430	1076.439420950010	119.212519710323	652.964292386700	1279.617763430448	87.200761286441	659.387938296619	900.994499593582	39.531424968315	391.804984713753	976.133536938075	35.890454153397	312.213473433674	1059.021533600092	96.149047418969	339.836711562771	1187.997510535426	43.582090295201	314.117736668787	1105.647304621526	1076.336154916894	96.058585541317	1259.993111406764	865.410313806023	105.034334479343	992.141854063927	1120.390782714704	689.777654232936	1015.729085782968	862.320081299650	715.696111050958	
